<svg xmlns="http://www.w3.org/2000/svg" viewBox="0 0 1277.16 1277.16"><defs><style>.cls-1{fill:#ebe7f5;}.cls-2{fill:#da0081;}.cls-3{fill:#200020;}</style></defs><g id="Capa_2" data-name="Capa 2"><g id="Capa_1-2" data-name="Capa 1"><rect class="cls-1" width="1277.16" height="1277.16" rx="283.77"/><path class="cls-2" d="M335.81,328.29H233.91a21.36,21.36,0,0,0-21.35,21.37v86.63a21.36,21.36,0,0,0,21.35,21.37h101.9a21.36,21.36,0,0,0,21.35-21.37V349.66A21.36,21.36,0,0,0,335.81,328.29Z"/><path class="cls-3" d="M956.56,328.29H868.9a21.35,21.35,0,0,0-21.35,21.37V700.28c0,7.12-9.37,9.75-12.74,3.37L631,337.66a18.27,18.27,0,0,0-16.48-9.37H468.81a21.36,21.36,0,0,0-21.35,21.37V909.9a21.35,21.35,0,0,0,21.35,21.37h87.66a21.36,21.36,0,0,0,21.36-21.37V548.78c0-7.12,9.36-9.75,12.73-3.37L800,922.27a18.29,18.29,0,0,0,16.48,9.38H955.81a21.35,21.35,0,0,0,21.35-21.38V349.66a21.35,21.35,0,0,0-21.35-21.37Z"/></g></g></svg>